<?xml version="1.0" encoding="UTF-8" standalone="no"?>
<!DOCTYPE svg PUBLIC "-//W3C//DTD SVG 1.1//EN"
 "http://www.w3.org/Graphics/SVG/1.1/DTD/svg11.dtd">
<!-- Generated by graphviz version 2.40.1 (20161225.0304)
 -->
<!-- Title: fastqins | bed mode Pages: 1 -->
<svg width="1542pt" height="861pt"
 viewBox="0.00 0.00 1542.00 860.96" xmlns="http://www.w3.org/2000/svg" xmlns:xlink="http://www.w3.org/1999/xlink">
<g id="graph0" class="graph" transform="scale(1 1) rotate(0) translate(4 856.9649)">
<title>fastqins | bed mode</title>
<polygon fill="#ffffff" stroke="transparent" points="-4,4 -4,-856.9649 1538,-856.9649 1538,4 -4,4"/>
<g id="clust1" class="cluster">
<title>clustertasks</title>
<polygon fill="none" stroke="#000000" points="8,-8 8,-844.9649 1410,-844.9649 1410,-8 8,-8"/>
<text text-anchor="middle" x="709" y="-816.9649" font-family="Times,serif" font-size="30.00" fill="#ff3232">fastqins | bed mode</text>
</g>
<g id="clust2" class="cluster">
<title>clusterkey1</title>
<polygon fill="#f6f4f4" stroke="#f6f4f4" points="1418,-627.136 1418,-819.4158 1526,-819.4158 1526,-627.136 1418,-627.136"/>
<text text-anchor="middle" x="1472" y="-799.4158" font-family="Times,serif" font-size="20.00" fill="#000000">Key:</text>
</g>
<!-- t0 -->
<g id="node1" class="node">
<title>t0</title>
<polygon fill="#efa03b" stroke="#006000" points="971,-770.4158 911,-770.4158 907,-766.4158 907,-734.4158 967,-734.4158 971,-738.4158 971,-770.4158"/>
<polyline fill="none" stroke="#006000" points="967,-766.4158 907,-766.4158 "/>
<polyline fill="none" stroke="#006000" points="967,-766.4158 967,-734.4158 "/>
<polyline fill="none" stroke="#006000" points="967,-766.4158 971,-770.4158 "/>
<text text-anchor="middle" x="939" y="-747.4158" font-family="Times,serif" font-size="20.00" fill="#006000">mkdir</text>
</g>
<!-- t2 -->
<g id="node2" class="node">
<title>t2</title>
<polygon fill="#efa03b" stroke="#006000" points="864,-674.636 584,-674.636 580,-670.636 580,-638.636 860,-638.636 864,-642.636 864,-674.636"/>
<polyline fill="none" stroke="#006000" points="860,-670.636 580,-670.636 "/>
<polyline fill="none" stroke="#006000" points="860,-670.636 860,-638.636 "/>
<polyline fill="none" stroke="#006000" points="860,-670.636 864,-674.636 "/>
<text text-anchor="middle" x="722" y="-651.636" font-family="Times,serif" font-size="20.00" fill="#006000">fastqins.fastqins.validate_genome</text>
</g>
<!-- t0&#45;&gt;t2 -->
<g id="edge1" class="edge">
<title>t0&#45;&gt;t2</title>
<path fill="none" stroke="#c0c0c0" d="M906.9809,-738.2832C871.5434,-722.6417 813.9588,-697.225 772.4456,-678.9018"/>
<polygon fill="#c0c0c0" stroke="#c0c0c0" points="773.617,-675.5931 763.0552,-674.757 770.7904,-681.997 773.617,-675.5931"/>
</g>
<!-- t4 -->
<g id="node4" class="node">
<title>t4</title>
<polygon fill="#efa03b" stroke="#006000" points="1106.5,-604.4052 889.5,-604.4052 885.5,-600.4052 885.5,-568.4052 1102.5,-568.4052 1106.5,-572.4052 1106.5,-604.4052"/>
<polyline fill="none" stroke="#006000" points="1102.5,-600.4052 885.5,-600.4052 "/>
<polyline fill="none" stroke="#006000" points="1102.5,-600.4052 1102.5,-568.4052 "/>
<polyline fill="none" stroke="#006000" points="1102.5,-600.4052 1106.5,-604.4052 "/>
<text text-anchor="middle" x="996" y="-581.4052" font-family="Times,serif" font-size="20.00" fill="#006000">decompress_paired_reads</text>
</g>
<!-- t0&#45;&gt;t4 -->
<g id="edge3" class="edge">
<title>t0&#45;&gt;t4</title>
<path fill="none" stroke="#c0c0c0" d="M922.6284,-734.4103C901.3261,-708.7074 869.4552,-660.8068 893,-626.4052 897.355,-620.0422 909.1319,-613.7309 923.2399,-608.0665"/>
<polygon fill="#c0c0c0" stroke="#c0c0c0" points="924.6839,-611.2621 932.7929,-604.4435 922.2016,-604.717 924.6839,-611.2621"/>
</g>
<!-- t7 -->
<g id="node7" class="node">
<title>t7</title>
<polygon fill="#efa03b" stroke="#000000" points="558.5,-604.4052 315.5,-604.4052 311.5,-600.4052 311.5,-568.4052 554.5,-568.4052 558.5,-572.4052 558.5,-604.4052"/>
<polyline fill="none" stroke="#000000" points="554.5,-600.4052 311.5,-600.4052 "/>
<polyline fill="none" stroke="#000000" points="554.5,-600.4052 554.5,-568.4052 "/>
<polyline fill="none" stroke="#000000" points="554.5,-600.4052 558.5,-604.4052 "/>
<text text-anchor="middle" x="435" y="-581.4052" font-family="Times,serif" font-size="20.00" fill="#000000">fastqins.fastqins.tn_trimming</text>
</g>
<!-- t0&#45;&gt;t7 -->
<g id="edge24" class="edge">
<title>t0&#45;&gt;t7</title>
<path fill="none" stroke="#c0c0c0" d="M906.99,-750.833C827.0131,-746.2519 621.2785,-730.4164 571,-686.8668 549.6058,-668.3358 570.8873,-646.5448 551,-626.4052 544.1679,-619.4865 536.0845,-613.7634 527.413,-609.0295"/>
<polygon fill="#c0c0c0" stroke="#c0c0c0" points="528.7041,-605.7627 518.1915,-604.4456 525.5882,-612.031 528.7041,-605.7627"/>
</g>
<!-- t1 -->
<g id="node8" class="node">
<title>t1</title>
<polygon fill="#efa03b" stroke="#006000" points="1391.5,-604.4052 1128.5,-604.4052 1124.5,-600.4052 1124.5,-568.4052 1387.5,-568.4052 1391.5,-572.4052 1391.5,-604.4052"/>
<polyline fill="none" stroke="#006000" points="1387.5,-600.4052 1124.5,-600.4052 "/>
<polyline fill="none" stroke="#006000" points="1387.5,-600.4052 1387.5,-568.4052 "/>
<polyline fill="none" stroke="#006000" points="1387.5,-600.4052 1391.5,-604.4052 "/>
<text text-anchor="middle" x="1258" y="-581.4052" font-family="Times,serif" font-size="20.00" fill="#006000">fastqins.fastqins.create_log_file</text>
</g>
<!-- t0&#45;&gt;t1 -->
<g id="edge6" class="edge">
<title>t0&#45;&gt;t1</title>
<path fill="none" stroke="#c0c0c0" d="M971.3294,-750.1402C1070.1903,-742.8568 1363.4337,-718.7191 1391,-686.8668 1408.5849,-666.5477 1407.0332,-647.9698 1391,-626.4052 1385.7085,-619.2881 1372.4759,-612.9584 1356.3031,-607.5512"/>
<polygon fill="#c0c0c0" stroke="#c0c0c0" points="1357.0678,-604.1231 1346.4788,-604.4752 1354.9761,-610.8034 1357.0678,-604.1231"/>
</g>
<!-- t3 -->
<g id="node17" class="node">
<title>t3</title>
<polygon fill="#efa03b" stroke="#006000" points="1088.5,-674.636 905.5,-674.636 901.5,-670.636 901.5,-638.636 1084.5,-638.636 1088.5,-642.636 1088.5,-674.636"/>
<polyline fill="none" stroke="#006000" points="1084.5,-670.636 901.5,-670.636 "/>
<polyline fill="none" stroke="#006000" points="1084.5,-670.636 1084.5,-638.636 "/>
<polyline fill="none" stroke="#006000" points="1084.5,-670.636 1088.5,-674.636 "/>
<text text-anchor="middle" x="995" y="-651.636" font-family="Times,serif" font-size="20.00" fill="#006000">decompress_tn_reads</text>
</g>
<!-- t0&#45;&gt;t3 -->
<g id="edge22" class="edge">
<title>t0&#45;&gt;t3</title>
<path fill="none" stroke="#c0c0c0" d="M949.5332,-734.4004C957.8495,-720.1765 969.5887,-700.0983 979.0554,-683.9068"/>
<polygon fill="#c0c0c0" stroke="#c0c0c0" points="982.2977,-685.2957 984.3237,-674.8963 976.2548,-681.7625 982.2977,-685.2957"/>
</g>
<!-- t8 -->
<g id="node18" class="node">
<title>t8</title>
<polygon fill="#efa03b" stroke="#006000" points="1381.5,-674.636 1110.5,-674.636 1106.5,-670.636 1106.5,-638.636 1377.5,-638.636 1381.5,-642.636 1381.5,-674.636"/>
<polyline fill="none" stroke="#006000" points="1377.5,-670.636 1106.5,-670.636 "/>
<polyline fill="none" stroke="#006000" points="1377.5,-670.636 1377.5,-638.636 "/>
<polyline fill="none" stroke="#006000" points="1377.5,-670.636 1381.5,-674.636 "/>
<text text-anchor="middle" x="1244" y="-651.636" font-family="Times,serif" font-size="20.00" fill="#006000">fastqins.fastqins.barcode_calling</text>
</g>
<!-- t0&#45;&gt;t8 -->
<g id="edge23" class="edge">
<title>t0&#45;&gt;t8</title>
<path fill="none" stroke="#c0c0c0" d="M971.0639,-742.3468C1019.653,-727.0882 1113.0268,-697.7658 1176.901,-677.7072"/>
<polygon fill="#c0c0c0" stroke="#c0c0c0" points="1178.0027,-681.0299 1186.4947,-674.6945 1175.9054,-674.3515 1178.0027,-681.0299"/>
</g>
<!-- t9 -->
<g id="node3" class="node">
<title>t9</title>
<polygon fill="#efa03b" stroke="#006000" points="867,-604.4052 581,-604.4052 577,-600.4052 577,-568.4052 863,-568.4052 867,-572.4052 867,-604.4052"/>
<polyline fill="none" stroke="#006000" points="863,-600.4052 577,-600.4052 "/>
<polyline fill="none" stroke="#006000" points="863,-600.4052 863,-568.4052 "/>
<polyline fill="none" stroke="#006000" points="863,-600.4052 867,-604.4052 "/>
<text text-anchor="middle" x="722" y="-581.4052" font-family="Times,serif" font-size="20.00" fill="#006000">fastqins.fastqins.genome_indexing</text>
</g>
<!-- t2&#45;&gt;t9 -->
<g id="edge2" class="edge">
<title>t2&#45;&gt;t9</title>
<path fill="none" stroke="#c0c0c0" d="M722,-638.5498C722,-631.3155 722,-622.8088 722,-614.7889"/>
<polygon fill="#c0c0c0" stroke="#c0c0c0" points="725.5001,-614.6742 722,-604.6742 718.5001,-614.6743 725.5001,-614.6742"/>
</g>
<!-- t10 -->
<g id="node9" class="node">
<title>t10</title>
<polygon fill="#efa03b" stroke="#000000" points="712.211,-490.6099 858,-463.2724 1003.789,-490.6099 1003.6529,-534.8429 712.3471,-534.8429 712.211,-490.6099"/>
<polygon fill="none" stroke="#000000" points="708.1967,-487.2865 858,-459.1962 1007.8033,-487.2865 1007.6447,-538.8493 708.3553,-538.8493 708.1967,-487.2865"/>
<text text-anchor="middle" x="858" y="-497.8356" font-family="Times,serif" font-size="20.00" fill="#000000">fastqins.fastqins.mapping</text>
</g>
<!-- t9&#45;&gt;t10 -->
<g id="edge7" class="edge">
<title>t9&#45;&gt;t10</title>
<path fill="none" stroke="#c0c0c0" d="M751.51,-568.2719C763.0904,-561.1559 776.8915,-552.6754 790.6567,-544.2169"/>
<polygon fill="#c0c0c0" stroke="#c0c0c0" points="792.5151,-547.183 799.2027,-538.9655 788.8503,-541.219 792.5151,-547.183"/>
</g>
<!-- t4&#45;&gt;t10 -->
<g id="edge25" class="edge">
<title>t4&#45;&gt;t10</title>
<path fill="none" stroke="#c0c0c0" d="M966.0561,-568.2719C954.3053,-561.1559 940.3013,-552.6754 926.3336,-544.2169"/>
<polygon fill="#c0c0c0" stroke="#c0c0c0" points="928.0288,-541.1517 917.662,-538.9655 924.4028,-547.1394 928.0288,-541.1517"/>
</g>
<!-- t5 -->
<g id="node5" class="node">
<title>t5</title>
<polygon fill="#efa03b" stroke="#006000" points="105.0906,-740.1959 279,-712.8713 452.9094,-740.1959 452.747,-784.4081 105.253,-784.4081 105.0906,-740.1959"/>
<polygon fill="none" stroke="#006000" points="101.0732,-736.7735 279,-708.8176 456.9268,-736.7735 456.7372,-788.4126 101.2628,-788.4126 101.0732,-736.7735"/>
<text text-anchor="middle" x="279" y="-747.4158" font-family="Times,serif" font-size="20.00" fill="#006000">fastqins.fastqins.create_lis_file</text>
</g>
<!-- t6 -->
<g id="node6" class="node">
<title>t6</title>
<polygon fill="#efa03b" stroke="#006000" points="537.9543,-664.8011 279,-683.0587 20.0457,-664.8011 20.2874,-635.2596 537.7126,-635.2596 537.9543,-664.8011"/>
<polygon fill="none" stroke="#006000" points="541.9889,-668.5572 279,-687.0993 16.0111,-668.5572 16.3165,-631.2289 541.6835,-631.2289 541.9889,-668.5572"/>
<text text-anchor="middle" x="279" y="-651.636" font-family="Times,serif" font-size="20.00" fill="#006000">fastqins.fastqins.rm_pcr_duplicates</text>
</g>
<!-- t5&#45;&gt;t6 -->
<g id="edge4" class="edge">
<title>t5&#45;&gt;t6</title>
<path fill="none" stroke="#c0c0c0" d="M279,-708.7302C279,-704.9651 279,-701.1651 279,-697.4242"/>
<polygon fill="#c0c0c0" stroke="#c0c0c0" points="282.5001,-697.1161 279,-687.1162 275.5001,-697.1162 282.5001,-697.1161"/>
</g>
<!-- t6&#45;&gt;t7 -->
<g id="edge5" class="edge">
<title>t6&#45;&gt;t7</title>
<path fill="none" stroke="#c0c0c0" d="M335.7609,-631.0824C351.9212,-623.8071 369.3982,-615.939 385.1165,-608.8627"/>
<polygon fill="#c0c0c0" stroke="#c0c0c0" points="386.9669,-611.868 394.6486,-604.5713 384.0933,-605.485 386.9669,-611.868"/>
</g>
<!-- t7&#45;&gt;t10 -->
<g id="edge8" class="edge">
<title>t7&#45;&gt;t10</title>
<path fill="none" stroke="#0044a0" d="M526.2639,-568.3748C576.4293,-558.4639 640.1084,-545.8832 698.2336,-534.3997"/>
<polygon fill="#0044a0" stroke="#0044a0" points="699.13,-537.7904 708.262,-532.4185 697.7733,-530.9231 699.13,-537.7904"/>
</g>
<!-- t17 -->
<g id="node16" class="node">
<title>t17</title>
<polygon fill="#efa03b" stroke="#000000" points="694.082,-47.3283 870,-20.0044 1045.918,-47.3283 1045.7538,-91.5394 694.2462,-91.5394 694.082,-47.3283"/>
<polygon fill="none" stroke="#000000" points="690.0644,-43.8999 870,-15.952 1049.9356,-43.8999 1049.7438,-95.5438 690.2562,-95.5438 690.0644,-43.8999"/>
<text text-anchor="middle" x="870" y="-54.548" font-family="Times,serif" font-size="20.00" fill="#000000">fastqins.fastqins.finish_log_file</text>
</g>
<!-- t7&#45;&gt;t17 -->
<g id="edge21" class="edge">
<title>t7&#45;&gt;t17</title>
<path fill="none" stroke="#0044a0" d="M436.9666,-568.3757C440.1306,-537.7629 446,-473.6456 446,-419.266 446,-419.266 446,-419.266 446,-252.1819 446,-180.0341 485.4826,-162.7909 547,-125.0959 570.8756,-110.4661 623.7071,-97.4418 679.8639,-86.9338"/>
<polygon fill="#0044a0" stroke="#0044a0" points="680.8073,-90.3191 690.0095,-85.0685 679.5415,-83.4345 680.8073,-90.3191"/>
</g>
<!-- t1&#45;&gt;t10 -->
<g id="edge26" class="edge">
<title>t1&#45;&gt;t10</title>
<path fill="none" stroke="#c0c0c0" d="M1171.6984,-568.3748C1126.8202,-558.9986 1070.5049,-547.233 1018.0193,-536.2675"/>
<polygon fill="#c0c0c0" stroke="#c0c0c0" points="1018.4276,-532.7773 1007.9231,-534.1582 1016.996,-539.6294 1018.4276,-532.7773"/>
</g>
<!-- t1&#45;&gt;t17 -->
<g id="edge27" class="edge">
<title>t1&#45;&gt;t17</title>
<path fill="none" stroke="#c0c0c0" d="M1256.0334,-568.3757C1252.8694,-537.7629 1247,-473.6456 1247,-419.266 1247,-419.266 1247,-419.266 1247,-252.1819 1247,-158.5659 1153.6791,-110.4196 1059.8971,-85.6712"/>
<polygon fill="#c0c0c0" stroke="#c0c0c0" points="1060.4978,-82.2124 1049.9428,-83.1307 1058.7666,-88.995 1060.4978,-82.2124"/>
</g>
<!-- t12 -->
<g id="node10" class="node">
<title>t12</title>
<polygon fill="#efa03b" stroke="#000000" points="828,-437.266 560,-437.266 556,-433.266 556,-401.266 824,-401.266 828,-405.266 828,-437.266"/>
<polyline fill="none" stroke="#000000" points="824,-433.266 556,-433.266 "/>
<polyline fill="none" stroke="#000000" points="824,-433.266 824,-401.266 "/>
<polyline fill="none" stroke="#000000" points="824,-433.266 828,-437.266 "/>
<text text-anchor="middle" x="692" y="-414.266" font-family="Times,serif" font-size="20.00" fill="#000000">fastqins.fastqins.recover_header</text>
</g>
<!-- t10&#45;&gt;t12 -->
<g id="edge9" class="edge">
<title>t10&#45;&gt;t12</title>
<path fill="none" stroke="#0044a0" d="M794.769,-471.0031C775.5752,-461.3403 754.8838,-450.9237 737.1334,-441.9875"/>
<polygon fill="#0044a0" stroke="#0044a0" points="738.6485,-438.8318 728.1427,-437.4613 735.5008,-445.0842 738.6485,-438.8318"/>
</g>
<!-- t11 -->
<g id="node11" class="node">
<title>t11</title>
<polygon fill="#efa03b" stroke="#000000" points="1144,-437.266 850,-437.266 846,-433.266 846,-401.266 1140,-401.266 1144,-405.266 1144,-437.266"/>
<polyline fill="none" stroke="#000000" points="1140,-433.266 846,-433.266 "/>
<polyline fill="none" stroke="#000000" points="1140,-433.266 1140,-401.266 "/>
<polyline fill="none" stroke="#000000" points="1140,-433.266 1144,-437.266 "/>
<text text-anchor="middle" x="995" y="-414.266" font-family="Times,serif" font-size="20.00" fill="#000000">fastqins.fastqins.len_mult_selection</text>
</g>
<!-- t10&#45;&gt;t11 -->
<g id="edge10" class="edge">
<title>t10&#45;&gt;t11</title>
<path fill="none" stroke="#0044a0" d="M912.9338,-469.3262C927.5896,-460.3862 943.1085,-450.9197 956.6598,-442.6534"/>
<polygon fill="#0044a0" stroke="#0044a0" points="958.5375,-445.6078 965.2519,-437.4122 954.8922,-439.6319 958.5375,-445.6078"/>
</g>
<!-- t13 -->
<g id="node12" class="node">
<title>t13</title>
<polygon fill="#efa03b" stroke="#000000" points="564.0304,-323.506 752,-296.1857 939.9696,-323.506 939.7942,-367.711 564.2058,-367.711 564.0304,-323.506"/>
<polygon fill="none" stroke="#000000" points="560.0115,-320.0441 752,-292.1398 943.9885,-320.0441 943.7834,-371.7149 560.2166,-371.7149 560.0115,-320.0441"/>
<text text-anchor="middle" x="752" y="-330.7239" font-family="Times,serif" font-size="20.00" fill="#000000">fastqins.fastqins.sam_fixing2bam</text>
</g>
<!-- t12&#45;&gt;t13 -->
<g id="edge11" class="edge">
<title>t12&#45;&gt;t13</title>
<path fill="none" stroke="#0044a0" d="M705.0191,-401.1386C709.4286,-394.999 714.5678,-387.8433 719.7968,-380.5626"/>
<polygon fill="#0044a0" stroke="#0044a0" points="722.9474,-382.1757 725.9381,-372.0117 717.2618,-378.0923 722.9474,-382.1757"/>
</g>
<!-- t11&#45;&gt;t13 -->
<g id="edge12" class="edge">
<title>t11&#45;&gt;t13</title>
<path fill="none" stroke="#0044a0" d="M942.5718,-401.2415C920.2046,-393.5518 893.161,-384.2543 866.5622,-375.1098"/>
<polygon fill="#0044a0" stroke="#0044a0" points="867.3869,-371.6923 856.7922,-371.7509 865.111,-378.312 867.3869,-371.6923"/>
</g>
<!-- t11&#45;&gt;t17 -->
<g id="edge20" class="edge">
<title>t11&#45;&gt;t17</title>
<path fill="none" stroke="#0044a0" d="M999.2705,-401.0375C1009.6544,-352.1839 1031.5582,-215.8781 977,-125.0959 971.824,-116.4833 965.0396,-108.8464 957.3944,-102.1131"/>
<polygon fill="#0044a0" stroke="#0044a0" points="959.4549,-99.2773 949.49,-95.6784 955.0356,-104.706 959.4549,-99.2773"/>
</g>
<!-- t14 -->
<g id="node13" class="node">
<title>t14</title>
<polygon fill="#efa03b" stroke="#000000" points="954.5,-270.1819 741.5,-270.1819 737.5,-266.1819 737.5,-234.1819 950.5,-234.1819 954.5,-238.1819 954.5,-270.1819"/>
<polyline fill="none" stroke="#000000" points="950.5,-266.1819 737.5,-266.1819 "/>
<polyline fill="none" stroke="#000000" points="950.5,-266.1819 950.5,-234.1819 "/>
<polyline fill="none" stroke="#000000" points="950.5,-266.1819 954.5,-270.1819 "/>
<text text-anchor="middle" x="846" y="-247.1819" font-family="Times,serif" font-size="20.00" fill="#000000">bed_fw_insertion_calling</text>
</g>
<!-- t13&#45;&gt;t14 -->
<g id="edge13" class="edge">
<title>t13&#45;&gt;t14</title>
<path fill="none" stroke="#0044a0" d="M794.3252,-298.1076C802.3414,-290.9832 810.5408,-283.6961 817.9781,-277.0862"/>
<polygon fill="#0044a0" stroke="#0044a0" points="820.5551,-279.4784 825.7047,-270.2192 815.9049,-274.2462 820.5551,-279.4784"/>
</g>
<!-- t15 -->
<g id="node14" class="node">
<title>t15</title>
<polygon fill="#efa03b" stroke="#000000" points="719,-270.1819 511,-270.1819 507,-266.1819 507,-234.1819 715,-234.1819 719,-238.1819 719,-270.1819"/>
<polyline fill="none" stroke="#000000" points="715,-266.1819 507,-266.1819 "/>
<polyline fill="none" stroke="#000000" points="715,-266.1819 715,-234.1819 "/>
<polyline fill="none" stroke="#000000" points="715,-266.1819 719,-270.1819 "/>
<text text-anchor="middle" x="613" y="-247.1819" font-family="Times,serif" font-size="20.00" fill="#000000">bed_rv_insertion_calling</text>
</g>
<!-- t13&#45;&gt;t15 -->
<g id="edge14" class="edge">
<title>t13&#45;&gt;t15</title>
<path fill="none" stroke="#0044a0" d="M693.4543,-300.5367C679.3481,-292.0585 664.6242,-283.2091 651.6865,-275.4333"/>
<polygon fill="#0044a0" stroke="#0044a0" points="653.4187,-272.3909 643.0446,-270.2393 649.8127,-278.3906 653.4187,-272.3909"/>
</g>
<!-- t16 -->
<g id="node15" class="node">
<title>t16</title>
<polygon fill="#efa03b" stroke="#000000" points="580.039,-156.4207 766,-129.0999 951.961,-156.4207 951.7875,-200.6266 580.2125,-200.6266 580.039,-156.4207"/>
<polygon fill="none" stroke="#000000" points="576.0203,-152.9641 766,-125.0529 955.9797,-152.9641 955.7768,-204.6306 576.2232,-204.6306 576.0203,-152.9641"/>
<text text-anchor="middle" x="766" y="-163.6389" font-family="Times,serif" font-size="20.00" fill="#000000">fastqins.fastqins.count_insertions</text>
</g>
<!-- t14&#45;&gt;t16 -->
<g id="edge16" class="edge">
<title>t14&#45;&gt;t16</title>
<path fill="none" stroke="#0044a0" d="M828.6412,-234.0543C822.5063,-227.6477 815.3119,-220.1347 808.0276,-212.5278"/>
<polygon fill="#0044a0" stroke="#0044a0" points="810.1934,-209.729 800.7492,-204.9271 805.1376,-214.5704 810.1934,-209.729"/>
</g>
<!-- t14&#45;&gt;t17 -->
<g id="edge19" class="edge">
<title>t14&#45;&gt;t17</title>
<path fill="none" stroke="#0044a0" d="M922.4182,-234.0911C941.9479,-227.8594 959.1161,-220.367 965,-212.1819 987.5916,-180.7544 982.9902,-159.3657 965,-125.0959 960.6225,-116.7572 954.6503,-109.271 947.8164,-102.6053"/>
<polygon fill="#0044a0" stroke="#0044a0" points="949.8819,-99.7567 940.0974,-95.6928 945.212,-104.9713 949.8819,-99.7567"/>
</g>
<!-- t15&#45;&gt;t16 -->
<g id="edge15" class="edge">
<title>t15&#45;&gt;t16</title>
<path fill="none" stroke="#0044a0" d="M646.1987,-234.0543C659.3496,-226.8735 675.0461,-218.3027 690.6771,-209.7677"/>
<polygon fill="#0044a0" stroke="#0044a0" points="692.7536,-212.6217 699.853,-204.7573 689.3988,-206.4779 692.7536,-212.6217"/>
</g>
<!-- t15&#45;&gt;t17 -->
<g id="edge18" class="edge">
<title>t15&#45;&gt;t17</title>
<path fill="none" stroke="#0044a0" d="M584.5587,-234.0616C577.5037,-228.0318 570.8614,-220.6568 567,-212.1819 550.9522,-176.9607 542.6965,-155.2192 567,-125.0959 583.0332,-105.2234 628.8064,-91.0773 680.071,-81.1428"/>
<polygon fill="#0044a0" stroke="#0044a0" points="680.8604,-84.5559 690.0448,-79.2741 679.5713,-77.6756 680.8604,-84.5559"/>
</g>
<!-- t16&#45;&gt;t17 -->
<g id="edge17" class="edge">
<title>t16&#45;&gt;t17</title>
<path fill="none" stroke="#0044a0" d="M802.6665,-130.1775C810.9818,-121.4552 819.8715,-112.1303 828.3754,-103.2102"/>
<polygon fill="#0044a0" stroke="#0044a0" points="831.0399,-105.4876 835.4068,-95.8346 825.9733,-100.6575 831.0399,-105.4876"/>
</g>
<!-- k1_1 -->
<g id="node19" class="node">
<title>k1_1</title>
<polygon fill="#efa03b" stroke="#006000" points="1517.5,-781.4158 1430.5,-781.4158 1426.5,-777.4158 1426.5,-723.4158 1513.5,-723.4158 1517.5,-727.4158 1517.5,-781.4158"/>
<polyline fill="none" stroke="#006000" points="1513.5,-777.4158 1426.5,-777.4158 "/>
<polyline fill="none" stroke="#006000" points="1513.5,-777.4158 1513.5,-723.4158 "/>
<polyline fill="none" stroke="#006000" points="1513.5,-777.4158 1517.5,-781.4158 "/>
<text text-anchor="middle" x="1472" y="-756.2158" font-family="Times,serif" font-size="14.00" fill="#006000">Up&#45;to&#45;date</text>
<text text-anchor="middle" x="1472" y="-741.2158" font-family="Times,serif" font-size="14.00" fill="#006000">Final target</text>
</g>
<!-- k2_1 -->
<g id="node20" class="node">
<title>k2_1</title>
<polygon fill="#efa03b" stroke="#000000" points="1517.5,-678.136 1430.5,-678.136 1426.5,-674.136 1426.5,-635.136 1513.5,-635.136 1517.5,-639.136 1517.5,-678.136"/>
<polyline fill="none" stroke="#000000" points="1513.5,-674.136 1426.5,-674.136 "/>
<polyline fill="none" stroke="#000000" points="1513.5,-674.136 1513.5,-635.136 "/>
<polyline fill="none" stroke="#000000" points="1513.5,-674.136 1517.5,-678.136 "/>
<text text-anchor="middle" x="1472" y="-652.936" font-family="Times,serif" font-size="14.00" fill="#000000">Final target</text>
</g>
<!-- k1_1&#45;&gt;k2_1 -->
<g id="edge28" class="edge">
<title>k1_1&#45;&gt;k2_1</title>
<path fill="none" stroke="#c0c0c0" d="M1472,-723.1583C1472,-712.2355 1472,-699.7806 1472,-688.6244"/>
<polygon fill="#c0c0c0" stroke="#c0c0c0" points="1475.5001,-688.4186 1472,-678.4186 1468.5001,-688.4186 1475.5001,-688.4186"/>
</g>
</g>
</svg>
