<?xml version="1.0" encoding="UTF-8" standalone="no"?>
<!DOCTYPE svg PUBLIC "-//W3C//DTD SVG 1.1//EN"
 "http://www.w3.org/Graphics/SVG/1.1/DTD/svg11.dtd">
<!-- Generated by graphviz version 2.40.1 (20161225.0304)
 -->
<!-- Title: fastqins | bed mode Pages: 1 -->
<svg width="954pt" height="873pt"
 viewBox="0.00 0.00 954.00 872.86" xmlns="http://www.w3.org/2000/svg" xmlns:xlink="http://www.w3.org/1999/xlink">
<g id="graph0" class="graph" transform="scale(1 1) rotate(0) translate(4 868.8626)">
<title>fastqins | bed mode</title>
<polygon fill="#ffffff" stroke="transparent" points="-4,4 -4,-868.8626 950,-868.8626 950,4 -4,4"/>
<g id="clust1" class="cluster">
<title>clustertasks</title>
<polygon fill="none" stroke="#000000" points="8,-8 8,-856.8626 822,-856.8626 822,-8 8,-8"/>
<text text-anchor="middle" x="415" y="-828.8626" font-family="Times,serif" font-size="30.00" fill="#ff3232">fastqins | bed mode</text>
</g>
<g id="clust2" class="cluster">
<title>clusterkey1</title>
<polygon fill="#f6f4f4" stroke="#f6f4f4" points="830,-760.3626 830,-849.3626 938,-849.3626 938,-760.3626 830,-760.3626"/>
<text text-anchor="middle" x="884" y="-829.3626" font-family="Times,serif" font-size="20.00" fill="#000000">Key:</text>
</g>
<!-- t0 -->
<g id="node1" class="node">
<title>t0</title>
<polygon fill="#efa03b" stroke="#000000" points="607,-807.8626 547,-807.8626 543,-803.8626 543,-771.8626 603,-771.8626 607,-775.8626 607,-807.8626"/>
<polyline fill="none" stroke="#000000" points="603,-803.8626 543,-803.8626 "/>
<polyline fill="none" stroke="#000000" points="603,-803.8626 603,-771.8626 "/>
<polyline fill="none" stroke="#000000" points="603,-803.8626 607,-807.8626 "/>
<text text-anchor="middle" x="575" y="-784.8626" font-family="Times,serif" font-size="20.00" fill="#000000">mkdir</text>
</g>
<!-- t2 -->
<g id="node2" class="node">
<title>t2</title>
<polygon fill="#efa03b" stroke="#000000" points="168,-746.3626 20,-746.3626 16,-742.3626 16,-710.3626 164,-710.3626 168,-714.3626 168,-746.3626"/>
<polyline fill="none" stroke="#000000" points="164,-742.3626 16,-742.3626 "/>
<polyline fill="none" stroke="#000000" points="164,-742.3626 164,-710.3626 "/>
<polyline fill="none" stroke="#000000" points="164,-742.3626 168,-746.3626 "/>
<text text-anchor="middle" x="92" y="-723.3626" font-family="Times,serif" font-size="20.00" fill="#000000">validate_genome</text>
</g>
<!-- t0&#45;&gt;t2 -->
<g id="edge1" class="edge">
<title>t0&#45;&gt;t2</title>
<path fill="none" stroke="#0044a0" d="M542.9542,-787.4148C476.8599,-782.1386 320.456,-768.4785 178.5519,-746.3546"/>
<polygon fill="#0044a0" stroke="#0044a0" points="178.7845,-742.8481 168.3613,-744.747 177.6937,-749.7626 178.7845,-742.8481"/>
</g>
<!-- t4 -->
<g id="node4" class="node">
<title>t4</title>
<polygon fill="#efa03b" stroke="#000000" points="407.5,-746.3626 190.5,-746.3626 186.5,-742.3626 186.5,-710.3626 403.5,-710.3626 407.5,-714.3626 407.5,-746.3626"/>
<polyline fill="none" stroke="#000000" points="403.5,-742.3626 186.5,-742.3626 "/>
<polyline fill="none" stroke="#000000" points="403.5,-742.3626 403.5,-710.3626 "/>
<polyline fill="none" stroke="#000000" points="403.5,-742.3626 407.5,-746.3626 "/>
<text text-anchor="middle" x="297" y="-723.3626" font-family="Times,serif" font-size="20.00" fill="#000000">decompress_paired_reads</text>
</g>
<!-- t0&#45;&gt;t4 -->
<g id="edge3" class="edge">
<title>t0&#45;&gt;t4</title>
<path fill="none" stroke="#0044a0" d="M542.8383,-782.7476C505.2984,-774.443 441.5787,-760.3467 388.4183,-748.5864"/>
<polygon fill="#0044a0" stroke="#0044a0" points="389.1437,-745.1623 378.6237,-746.4196 387.6316,-751.9971 389.1437,-745.1623"/>
</g>
<!-- t3 -->
<g id="node5" class="node">
<title>t3</title>
<polygon fill="#efa03b" stroke="#000000" points="612.5,-746.3626 429.5,-746.3626 425.5,-742.3626 425.5,-710.3626 608.5,-710.3626 612.5,-714.3626 612.5,-746.3626"/>
<polyline fill="none" stroke="#000000" points="608.5,-742.3626 425.5,-742.3626 "/>
<polyline fill="none" stroke="#000000" points="608.5,-742.3626 608.5,-710.3626 "/>
<polyline fill="none" stroke="#000000" points="608.5,-742.3626 612.5,-746.3626 "/>
<text text-anchor="middle" x="519" y="-723.3626" font-family="Times,serif" font-size="20.00" fill="#000000">decompress_tn_reads</text>
</g>
<!-- t0&#45;&gt;t3 -->
<g id="edge4" class="edge">
<title>t0&#45;&gt;t3</title>
<path fill="none" stroke="#0044a0" d="M558.501,-771.7432C553.5325,-766.2867 547.9793,-760.188 542.6425,-754.3271"/>
<polygon fill="#0044a0" stroke="#0044a0" points="544.8952,-751.6025 535.5745,-746.565 539.7194,-756.3154 544.8952,-751.6025"/>
</g>
<!-- t7 -->
<g id="node8" class="node">
<title>t7</title>
<polygon fill="#efa03b" stroke="#000000" points="521.5,-496.4594 410.5,-496.4594 406.5,-492.4594 406.5,-460.4594 517.5,-460.4594 521.5,-464.4594 521.5,-496.4594"/>
<polyline fill="none" stroke="#000000" points="517.5,-492.4594 406.5,-492.4594 "/>
<polyline fill="none" stroke="#000000" points="517.5,-492.4594 517.5,-460.4594 "/>
<polyline fill="none" stroke="#000000" points="517.5,-492.4594 521.5,-496.4594 "/>
<text text-anchor="middle" x="464" y="-473.4594" font-family="Times,serif" font-size="20.00" fill="#000000">tn_trimming</text>
</g>
<!-- t0&#45;&gt;t7 -->
<g id="edge9" class="edge">
<title>t0&#45;&gt;t7</title>
<path fill="none" stroke="#0044a0" d="M602.1199,-771.5875C610.0476,-764.7051 617.7256,-756.1428 622,-746.3626 627.8218,-733.0417 650.3271,-557.126 620,-518.4594 617.041,-514.6867 572.4532,-503.4703 531.7035,-493.8717"/>
<polygon fill="#0044a0" stroke="#0044a0" points="532.2622,-490.4079 521.7276,-491.5355 530.6661,-497.2235 532.2622,-490.4079"/>
</g>
<!-- t1 -->
<g id="node9" class="node">
<title>t1</title>
<polygon fill="#efa03b" stroke="#000000" points="785.5,-662.6638 654.5,-662.6638 650.5,-658.6638 650.5,-626.6638 781.5,-626.6638 785.5,-630.6638 785.5,-662.6638"/>
<polyline fill="none" stroke="#000000" points="781.5,-658.6638 650.5,-658.6638 "/>
<polyline fill="none" stroke="#000000" points="781.5,-658.6638 781.5,-626.6638 "/>
<polyline fill="none" stroke="#000000" points="781.5,-658.6638 785.5,-662.6638 "/>
<text text-anchor="middle" x="718" y="-639.6638" font-family="Times,serif" font-size="20.00" fill="#000000">create_log_file</text>
</g>
<!-- t0&#45;&gt;t1 -->
<g id="edge10" class="edge">
<title>t0&#45;&gt;t1</title>
<path fill="none" stroke="#0044a0" d="M604.4498,-771.7309C614.9952,-764.5214 626.5904,-755.7158 636,-746.3626 649.9977,-732.4487 649.8109,-725.8853 662,-710.3626 672.5288,-696.9543 684.7572,-682.4904 695.0962,-670.5562"/>
<polygon fill="#0044a0" stroke="#0044a0" points="697.975,-672.5801 701.908,-662.7423 692.6985,-667.9803 697.975,-672.5801"/>
</g>
<!-- t8 -->
<g id="node17" class="node">
<title>t8</title>
<polygon fill="#efa03b" stroke="#000000" points="813.5,-746.3626 674.5,-746.3626 670.5,-742.3626 670.5,-710.3626 809.5,-710.3626 813.5,-714.3626 813.5,-746.3626"/>
<polyline fill="none" stroke="#000000" points="809.5,-742.3626 670.5,-742.3626 "/>
<polyline fill="none" stroke="#000000" points="809.5,-742.3626 809.5,-710.3626 "/>
<polyline fill="none" stroke="#000000" points="809.5,-742.3626 813.5,-746.3626 "/>
<text text-anchor="middle" x="742" y="-723.3626" font-family="Times,serif" font-size="20.00" fill="#000000">barcode_calling</text>
</g>
<!-- t0&#45;&gt;t8 -->
<g id="edge23" class="edge">
<title>t0&#45;&gt;t8</title>
<path fill="none" stroke="#0044a0" d="M607.1993,-778.0047C628.7988,-770.0504 657.8756,-759.3425 683.4947,-749.9079"/>
<polygon fill="#0044a0" stroke="#0044a0" points="684.9469,-753.103 693.1213,-746.3628 682.5278,-746.5342 684.9469,-753.103"/>
</g>
<!-- t9 -->
<g id="node3" class="node">
<title>t9</title>
<polygon fill="#efa03b" stroke="#000000" points="226,-566.7122 72,-566.7122 68,-562.7122 68,-530.7122 222,-530.7122 226,-534.7122 226,-566.7122"/>
<polyline fill="none" stroke="#000000" points="222,-562.7122 68,-562.7122 "/>
<polyline fill="none" stroke="#000000" points="222,-562.7122 222,-530.7122 "/>
<polyline fill="none" stroke="#000000" points="222,-562.7122 226,-566.7122 "/>
<text text-anchor="middle" x="147" y="-543.7122" font-family="Times,serif" font-size="20.00" fill="#000000">genome_indexing</text>
</g>
<!-- t2&#45;&gt;t9 -->
<g id="edge2" class="edge">
<title>t2&#45;&gt;t9</title>
<path fill="none" stroke="#0044a0" d="M97.5764,-710.1481C107.212,-678.6745 127.0379,-613.9157 138.4337,-576.6929"/>
<polygon fill="#0044a0" stroke="#0044a0" points="141.8281,-577.5614 141.4089,-566.9749 135.1347,-575.5122 141.8281,-577.5614"/>
</g>
<!-- t10 -->
<g id="node10" class="node">
<title>t10</title>
<polygon fill="#efa03b" stroke="#000000" points="269.5845,-382.3447 327,-355.0952 384.4155,-382.3447 384.3619,-426.4351 269.6381,-426.4351 269.5845,-382.3447"/>
<polygon fill="none" stroke="#000000" points="265.5842,-379.822 327,-350.6741 388.4158,-379.822 388.3543,-430.4286 265.6457,-430.4286 265.5842,-379.822"/>
<text text-anchor="middle" x="327" y="-389.531" font-family="Times,serif" font-size="20.00" fill="#000000">mapping</text>
</g>
<!-- t9&#45;&gt;t10 -->
<g id="edge11" class="edge">
<title>t9&#45;&gt;t10</title>
<path fill="none" stroke="#0044a0" d="M168.3552,-530.4201C194.9345,-507.6533 241.1794,-468.0417 276.9052,-437.4403"/>
<polygon fill="#0044a0" stroke="#0044a0" points="279.4997,-439.8264 284.8175,-430.6629 274.9459,-434.5101 279.4997,-439.8264"/>
</g>
<!-- t5 -->
<g id="node6" class="node">
<title>t5</title>
<polygon fill="#efa03b" stroke="#000000" points="378.4672,-632.4018 464,-604.9832 549.5328,-632.4018 549.4529,-676.766 378.5471,-676.766 378.4672,-632.4018"/>
<polygon fill="none" stroke="#000000" points="374.4611,-629.468 464,-600.7652 553.5389,-629.468 553.4466,-680.7842 374.5534,-680.7842 374.4611,-629.468"/>
<text text-anchor="middle" x="464" y="-639.6638" font-family="Times,serif" font-size="20.00" fill="#000000">create_lis_file</text>
</g>
<!-- t4&#45;&gt;t5 -->
<g id="edge5" class="edge">
<title>t4&#45;&gt;t5</title>
<path fill="none" stroke="#0044a0" d="M333.2365,-710.2012C347.8591,-702.8725 365.365,-694.0987 382.7414,-685.3898"/>
<polygon fill="#0044a0" stroke="#0044a0" points="384.4286,-688.4592 391.8004,-680.8495 381.2921,-682.2012 384.4286,-688.4592"/>
</g>
<!-- t4&#45;&gt;t10 -->
<g id="edge13" class="edge">
<title>t4&#45;&gt;t10</title>
<path fill="none" stroke="#0044a0" d="M297.3389,-710.3459C298.1564,-673.9828 300.7372,-589.2462 308,-518.4594 310.661,-492.5243 314.9911,-463.7294 318.8461,-440.4279"/>
<polygon fill="#0044a0" stroke="#0044a0" points="322.3135,-440.9131 320.5193,-430.4713 315.4103,-439.753 322.3135,-440.9131"/>
</g>
<!-- t3&#45;&gt;t5 -->
<g id="edge6" class="edge">
<title>t3&#45;&gt;t5</title>
<path fill="none" stroke="#0044a0" d="M507.0658,-710.2012C503.0238,-704.05 498.3128,-696.8809 493.5196,-689.5866"/>
<polygon fill="#0044a0" stroke="#0044a0" points="496.3068,-687.4547 487.8901,-681.0196 490.4568,-691.2989 496.3068,-687.4547"/>
</g>
<!-- t6 -->
<g id="node7" class="node">
<title>t6</title>
<polygon fill="#efa03b" stroke="#000000" points="607.2027,-556.7492 464,-574.7206 320.7973,-556.7492 320.931,-527.6709 607.069,-527.6709 607.2027,-556.7492"/>
<polygon fill="none" stroke="#000000" points="611.2149,-560.2448 464,-578.7197 316.7851,-560.2448 316.9531,-523.7033 611.0469,-523.7033 611.2149,-560.2448"/>
<text text-anchor="middle" x="464" y="-543.7122" font-family="Times,serif" font-size="20.00" fill="#000000">rm_pcr_duplicates</text>
</g>
<!-- t5&#45;&gt;t6 -->
<g id="edge7" class="edge">
<title>t5&#45;&gt;t6</title>
<path fill="none" stroke="#0044a0" d="M464,-600.8998C464,-596.9611 464,-592.9843 464,-589.0766"/>
<polygon fill="#0044a0" stroke="#0044a0" points="467.5001,-588.9679 464,-578.9679 460.5001,-588.9679 467.5001,-588.9679"/>
</g>
<!-- t6&#45;&gt;t7 -->
<g id="edge8" class="edge">
<title>t6&#45;&gt;t7</title>
<path fill="none" stroke="#0044a0" d="M464,-523.3493C464,-517.9845 464,-512.2895 464,-506.8219"/>
<polygon fill="#0044a0" stroke="#0044a0" points="467.5001,-506.734 464,-496.7341 460.5001,-506.7341 467.5001,-506.734"/>
</g>
<!-- t7&#45;&gt;t10 -->
<g id="edge12" class="edge">
<title>t7&#45;&gt;t10</title>
<path fill="none" stroke="#0044a0" d="M434.6101,-460.4546C422.7601,-453.1951 408.5617,-444.497 394.4245,-435.8363"/>
<polygon fill="#0044a0" stroke="#0044a0" points="396.007,-432.7012 385.6515,-430.4618 392.3502,-438.6702 396.007,-432.7012"/>
</g>
<!-- t1&#45;&gt;t10 -->
<g id="edge14" class="edge">
<title>t1&#45;&gt;t10</title>
<path fill="none" stroke="#0044a0" d="M709.712,-626.3723C696.9793,-599.8806 670.4249,-550.5061 636,-518.4594 569.0646,-456.148 466.8364,-423.5211 398.508,-407.6875"/>
<polygon fill="#0044a0" stroke="#0044a0" points="399.206,-404.2571 388.681,-405.4718 397.6662,-411.0857 399.206,-404.2571"/>
</g>
<!-- t12 -->
<g id="node11" class="node">
<title>t12</title>
<polygon fill="#efa03b" stroke="#000000" points="343,-328.6026 207,-328.6026 203,-324.6026 203,-292.6026 339,-292.6026 343,-296.6026 343,-328.6026"/>
<polyline fill="none" stroke="#000000" points="339,-324.6026 203,-324.6026 "/>
<polyline fill="none" stroke="#000000" points="339,-324.6026 339,-292.6026 "/>
<polyline fill="none" stroke="#000000" points="339,-324.6026 343,-328.6026 "/>
<text text-anchor="middle" x="273" y="-305.6026" font-family="Times,serif" font-size="20.00" fill="#000000">recover_header</text>
</g>
<!-- t10&#45;&gt;t12 -->
<g id="edge15" class="edge">
<title>t10&#45;&gt;t12</title>
<path fill="none" stroke="#0044a0" d="M305.3473,-360.8777C300.3958,-353.1819 295.1943,-345.0977 290.4456,-337.717"/>
<polygon fill="#0044a0" stroke="#0044a0" points="293.0798,-335.3426 284.7255,-328.8267 287.193,-339.1302 293.0798,-335.3426"/>
</g>
<!-- t11 -->
<g id="node12" class="node">
<title>t11</title>
<polygon fill="#efa03b" stroke="#000000" points="527,-328.6026 365,-328.6026 361,-324.6026 361,-292.6026 523,-292.6026 527,-296.6026 527,-328.6026"/>
<polyline fill="none" stroke="#000000" points="523,-324.6026 361,-324.6026 "/>
<polyline fill="none" stroke="#000000" points="523,-324.6026 523,-292.6026 "/>
<polyline fill="none" stroke="#000000" points="523,-324.6026 527,-328.6026 "/>
<text text-anchor="middle" x="444" y="-305.6026" font-family="Times,serif" font-size="20.00" fill="#000000">len_mult_selection</text>
</g>
<!-- t10&#45;&gt;t11 -->
<g id="edge16" class="edge">
<title>t10&#45;&gt;t11</title>
<path fill="none" stroke="#0044a0" d="M364.0195,-367.9755C378.906,-357.2969 395.9476,-345.0723 410.4645,-334.6588"/>
<polygon fill="#0044a0" stroke="#0044a0" points="412.5993,-337.4349 418.6848,-328.7621 408.5191,-331.747 412.5993,-337.4349"/>
</g>
<!-- t13 -->
<g id="node13" class="node">
<title>t13</title>
<polygon fill="#efa03b" stroke="#000000" points="188.4078,-214.7073 288,-187.3209 387.5922,-214.7073 387.4992,-259.0196 188.5008,-259.0196 188.4078,-214.7073"/>
<polygon fill="none" stroke="#000000" points="184.3994,-211.6479 288,-183.1592 391.6006,-211.6479 391.4928,-263.0331 184.5072,-263.0331 184.3994,-211.6479"/>
<text text-anchor="middle" x="288" y="-221.9549" font-family="Times,serif" font-size="20.00" fill="#000000">sam_fixing2bam</text>
</g>
<!-- t12&#45;&gt;t13 -->
<g id="edge17" class="edge">
<title>t12&#45;&gt;t13</title>
<path fill="none" stroke="#0044a0" d="M276.2548,-292.4523C277.2852,-286.7058 278.4751,-280.0704 279.6938,-273.2747"/>
<polygon fill="#0044a0" stroke="#0044a0" points="283.1644,-273.7494 281.4845,-263.2886 276.2743,-272.5138 283.1644,-273.7494"/>
</g>
<!-- t11&#45;&gt;t13 -->
<g id="edge18" class="edge">
<title>t11&#45;&gt;t13</title>
<path fill="none" stroke="#0044a0" d="M410.1503,-292.4523C396.6163,-285.1953 380.4379,-276.5204 364.353,-267.8956"/>
<polygon fill="#0044a0" stroke="#0044a0" points="365.9109,-264.7596 355.444,-263.1186 362.603,-270.9287 365.9109,-264.7596"/>
</g>
<!-- t14 -->
<g id="node14" class="node">
<title>t14</title>
<polygon fill="#efa03b" stroke="#000000" points="341.5,-161.3073 128.5,-161.3073 124.5,-157.3073 124.5,-125.3073 337.5,-125.3073 341.5,-129.3073 341.5,-161.3073"/>
<polyline fill="none" stroke="#000000" points="337.5,-157.3073 124.5,-157.3073 "/>
<polyline fill="none" stroke="#000000" points="337.5,-157.3073 337.5,-125.3073 "/>
<polyline fill="none" stroke="#000000" points="337.5,-157.3073 341.5,-161.3073 "/>
<text text-anchor="middle" x="233" y="-138.3073" font-family="Times,serif" font-size="20.00" fill="#000000">bed_fw_insertion_calling</text>
</g>
<!-- t13&#45;&gt;t14 -->
<g id="edge19" class="edge">
<title>t13&#45;&gt;t14</title>
<path fill="none" stroke="#0044a0" d="M263.3956,-189.535C259.0911,-182.9883 254.6908,-176.2961 250.6231,-170.1096"/>
<polygon fill="#0044a0" stroke="#0044a0" points="253.3696,-167.9161 244.9511,-161.4834 247.5207,-171.7619 253.3696,-167.9161"/>
</g>
<!-- t15 -->
<g id="node15" class="node">
<title>t15</title>
<polygon fill="#efa03b" stroke="#000000" points="572,-161.3073 364,-161.3073 360,-157.3073 360,-125.3073 568,-125.3073 572,-129.3073 572,-161.3073"/>
<polyline fill="none" stroke="#000000" points="568,-157.3073 360,-157.3073 "/>
<polyline fill="none" stroke="#000000" points="568,-157.3073 568,-125.3073 "/>
<polyline fill="none" stroke="#000000" points="568,-157.3073 572,-161.3073 "/>
<text text-anchor="middle" x="466" y="-138.3073" font-family="Times,serif" font-size="20.00" fill="#000000">bed_rv_insertion_calling</text>
</g>
<!-- t13&#45;&gt;t15 -->
<g id="edge20" class="edge">
<title>t13&#45;&gt;t15</title>
<path fill="none" stroke="#0044a0" d="M347.2714,-199.1015C370.4563,-188.2062 396.682,-175.8819 418.5774,-165.5927"/>
<polygon fill="#0044a0" stroke="#0044a0" points="420.1126,-168.7385 427.6745,-161.3176 417.1354,-162.4031 420.1126,-168.7385"/>
</g>
<!-- t16 -->
<g id="node16" class="node">
<title>t16</title>
<polygon fill="#efa03b" stroke="#000000" points="251.4163,-47.4044 349,-20.0141 446.5837,-47.4044 446.4926,-91.7227 251.5074,-91.7227 251.4163,-47.4044"/>
<polygon fill="none" stroke="#000000" points="247.4082,-44.361 349,-15.8458 450.5918,-44.361 450.4862,-95.7368 247.5138,-95.7368 247.4082,-44.361"/>
<text text-anchor="middle" x="349" y="-54.6537" font-family="Times,serif" font-size="20.00" fill="#000000">count_insertions</text>
</g>
<!-- t14&#45;&gt;t16 -->
<g id="edge22" class="edge">
<title>t14&#45;&gt;t16</title>
<path fill="none" stroke="#0044a0" d="M258.1703,-125.1557C267.7145,-118.2728 279.0273,-110.1146 290.372,-101.9333"/>
<polygon fill="#0044a0" stroke="#0044a0" points="292.5499,-104.678 298.6136,-95.9899 288.4555,-99.0003 292.5499,-104.678"/>
</g>
<!-- t15&#45;&gt;t16 -->
<g id="edge21" class="edge">
<title>t15&#45;&gt;t16</title>
<path fill="none" stroke="#0044a0" d="M440.6127,-125.1557C430.9862,-118.2728 419.5759,-110.1146 408.1334,-101.9333"/>
<polygon fill="#0044a0" stroke="#0044a0" points="409.9911,-98.959 399.8207,-95.9899 405.9197,-104.6532 409.9911,-98.959"/>
</g>
<!-- k1_1 -->
<g id="node18" class="node">
<title>k1_1</title>
<polygon fill="#efa03b" stroke="#000000" points="929.5,-811.3626 842.5,-811.3626 838.5,-807.3626 838.5,-768.3626 925.5,-768.3626 929.5,-772.3626 929.5,-811.3626"/>
<polyline fill="none" stroke="#000000" points="925.5,-807.3626 838.5,-807.3626 "/>
<polyline fill="none" stroke="#000000" points="925.5,-807.3626 925.5,-768.3626 "/>
<polyline fill="none" stroke="#000000" points="925.5,-807.3626 929.5,-811.3626 "/>
<text text-anchor="middle" x="884" y="-786.1626" font-family="Times,serif" font-size="14.00" fill="#000000">Final target</text>
</g>
</g>
</svg>
